#!OML:ASF F:\VICON\USERDATA\INSTALL\rory3\rory3.ASF
:FULLY-SPECIFIED
:DEGREES
353
root -4.13558 17.7881 7.90368 -4.79243 10.4417 1.6065
lowerback 12.7154 2.60846 1.88864
upperback 1.64622 3.73346 0.127313
thorax -5.27488 1.80316 -1.56171
lowerneck -16.8959 2.77233 -9.30723
upperneck 41.0999 6.51051 4.34463
head 17.5385 1.93089 4.95183
rclavicle 1.36167e-014 0
rhumerus -33.5019 -13.3778 -77.5536
rradius 34.8761
rwrist 5.06815
rhand -15.7689 7.58199
rfingers 7.12502
rthumb 10.4231 -22.1396
lclavicle 1.36167e-014 0
lhumerus -35.1382 14.0903 78.3752
lradius 39.3726
lwrist -4.48743
lhand -21.1834 28.2126
lfingers 7.12502
lthumb 5.19725 58.1289
rfemur -1.80561 -1.28477 17.2224
rtibia 30.2358
rfoot -17.4625 -4.58144
rtoes -5.39234
lfemur -15.3595 -2.83997 -13.5746
ltibia 34.5019
lfoot -7.21023 1.76046
ltoes -1.71111
354
root -4.09169 17.8021 7.91535 -4.77125 10.7679 1.49185
lowerback 12.8224 2.54248 1.98529
upperback 1.60659 3.6617 0.114579
thorax -5.37156 1.76375 -1.62437
lowerneck -17.3594 2.87974 -9.23346
upperneck 41.5475 6.6422 4.60335
head 17.887 1.99943 5.14139
rclavicle -3.23274e-014 5.1684e-015
rhumerus -33.4877 -13.4958 -77.416
rradius 34.7839
rwrist 4.96863
rhand -15.6725 7.39863
rfingers 7.12502
rthumb 10.516 -22.3183
lclavicle -3.23274e-014 5.1684e-015
lhumerus -35.3805 14.3336 78.128
lradius 38.9629
lwrist -4.74838
lhand -21.1856 28.0769
lfingers 7.12502
lthumb 5.19511 57.9933
rfemur -1.46662 -1.25011 17.257
rtibia 29.8534
rfoot -17.459 -4.92786
rtoes -5.39998
lfemur -15.3086 -3.31019 -12.7131
ltibia 34.0754
lfoot -6.78982 2.182
ltoes -0.104637
355
root -4.0464 17.8108 7.93085 -4.75174 11.0042 1.50806
lowerback 12.8616 2.49154 1.88545
upperback 1.60736 3.58143 0.118222
thorax -5.40193 1.72587 -1.55332
lowerneck -17.5374 2.99307 -9.05672
upperneck 41.6335 6.83349 4.48986
head 17.979 2.07973 5.10796
rclavicle 3.58061e-014 -4.77083e-015
rhumerus -33.4053 -13.4049 -77.3186
rradius 34.7057
rwrist 4.72551
rhand -15.8396 7.31635
rfingers 7.12502
rthumb 10.3548 -22.4087
lclavicle 3.58061e-014 -4.77083e-015
lhumerus -35.6021 14.7862 77.8268
lradius 38.4111
lwrist -5.03523
lhand -21.2011 27.2453
lfingers 7.12502
lthumb 5.18018 57.162
rfemur -1.23033 -1.14879 17.1359
rtibia 29.5517
rfoot -17.3276 -5.23512
rtoes -5.26261
lfemur -15.1982 -3.74284 -11.9832
ltibia 33.5718
lfoot -6.51645 2.47235
ltoes 1.19556
356
root -3.99099 17.8094 7.94955 -4.7068 11.0913 1.47532
lowerback 12.8436 2.54455 1.97612
upperback 1.55243 3.66188 0.0689915
thorax -5.43799 1.76203 -1.66996
lowerneck -17.3949 2.99735 -8.91409
upperneck 41.4922 6.80661 4.38183
head 17.875 2.08834 5.00987
rclavicle -7.33018e-014 9.93923e-015
rhumerus -33.5464 -13.5847 -77.1392
rradius 34.6624
rwrist 4.63433
rhand -15.8668 7.30698
rfingers 7.12502
rthumb 10.3286 -22.4194
lclavicle -7.33018e-014 9.93923e-015
lhumerus -35.7927 15.2537 77.4276
lradius 37.5845
lwrist -5.56039
lhand -21.4276 26.6408
lfingers 7.12502
lthumb 4.96144 56.5627
rfemur -1.07186 -1.03509 17.0318
rtibia 29.3138
rfoot -17.2262 -5.49035
rtoes -5.72985
lfemur -15.0853 -3.967 -11.2641
ltibia 32.9893
lfoot -6.26283 2.71867
ltoes -0.302193
357
root -3.93249 17.8126 7.97339 -4.58252 11.1592 1.62628
lowerback 12.721 2.61221 1.90193
upperback 1.50688 3.73279 -0.0416383
thorax -5.41257 1.79768 -1.75087
lowerneck -17.3042 3.00303 -8.7529
upperneck 41.423 6.79915 4.24917
head 17.8283 2.09806 4.9097
rclavicle -4.02539e-015 2.38542e-015
rhumerus -33.6637 -13.7456 -76.9702
rradius 34.5992
rwrist 4.56876
rhand -15.7966 7.363
rfingers 7.12502
rthumb 10.3964 -22.36
lclavicle -4.02539e-015 2.38542e-015
lhumerus -36.002 15.7283 77.0254
lradius 36.8584
lwrist -5.96057
lhand -21.5603 26.2642
lfingers 7.12502
lthumb 4.83337 56.1891
rfemur -0.908956 -0.921603 16.7185
rtibia 29.0729
rfoot -17.1243 -5.77476
rtoes -6.47173
lfemur -14.8749 -4.13037 -10.7462
ltibia 32.3864
lfoot -6.06192 2.87318
ltoes -0.159772
358
root -3.87598 17.8202 7.9951 -4.46987 11.2925 1.84295
lowerback 12.6505 2.63389 1.69012
upperback 1.50453 3.72646 -0.119017
thorax -5.38445 1.79891 -1.7084
lowerneck -17.4012 2.98925 -8.76988
upperneck 41.4245 6.80638 4.23116
head 17.8552 2.09396 4.91098
rclavicle 6.79595e-014 -1.78906e-014
rhumerus -33.6056 -13.6496 -76.8494
rradius 34.5191
rwrist 4.46575
rhand -15.7988 7.35346
rfingers 7.12502
rthumb 10.3943 -22.3696
lclavicle 6.79595e-014 -1.78906e-014
lhumerus -36.1817 16.1855 76.7388
lradius 36.3166
lwrist -6.22611
lhand -21.2987 25.7942
lfingers 7.12502
lthumb 5.0859 55.7131
rfemur -0.689609 -0.914663 16.3291
rtibia 28.7809
rfoot -17.0099 -6.04494
rtoes -7.72205
lfemur -14.6588 -4.43119 -10.2561
ltibia 31.8308
lfoot -5.74853 2.89221
ltoes 1.72964
359
root -3.81999 17.8347 8.01195 -4.49686 11.4222 1.77328
lowerback 12.7443 2.61353 1.75151
upperback 1.49476 3.70978 -0.119563
thorax -5.44341 1.78824 -1.74613
lowerneck -17.5117 2.99809 -8.77895
upperneck 41.4601 6.82874 4.26249
head 17.9002 2.10222 4.93967
rclavicle 1.97045e-014 3.97569e-016
rhumerus -33.5188 -13.56 -76.7327
rradius 34.3683
rwrist 4.5274
rhand -15.9485 7.40339
rfingers 7.12502
rthumb 10.2499 -22.3269
lclavicle 1.97045e-014 3.97569e-016
lhumerus -36.3746 16.7282 76.3634
lradius 35.7687
lwrist -6.5648
lhand -21.0947 25.4434
lfingers 7.12502
lthumb 5.28294 55.3576
rfemur -0.400831 -0.800742 16.2711
rtibia 28.4816
rfoot -16.8431 -6.32201
rtoes -8.48815
lfemur -14.3441 -5.01719 -9.38958
ltibia 31.2579
lfoot -5.3861 2.90216
ltoes 6.58349
360
root -3.76164 17.8476 8.03255 -4.52938 11.5644 1.71304
lowerback 12.7241 2.62123 1.82021
upperback 1.52304 3.72628 -0.165611
thorax -5.39419 1.79569 -1.83338
lowerneck -17.5071 3.00006 -8.6819
upperneck 41.3768 6.7733 4.2966
head 17.8564 2.10575 4.92223
rclavicle -5.87906e-014 6.75868e-015
rhumerus -33.4722 -13.5935 -76.665
rradius 34.2615
rwrist 4.58921
rhand -16.0768 7.42102
rfingers 7.12502
rthumb 10.1261 -22.3153
lclavicle -5.87906e-014 6.75868e-015
lhumerus -36.4304 17.2254 75.9579
lradius 35.09
lwrist -6.92943
lhand -21.1662 25.6924
lfingers 7.12502
lthumb 5.21391 55.6083
rfemur -0.0906279 -0.575478 16.1996
rtibia 28.1931
rfoot -16.7021 -6.58056
rtoes -8.30647
lfemur -13.9901 -5.68626 -8.56468
ltibia 30.6716
lfoot -4.95632 2.97309
ltoes 10.5157
361
root -3.69865 17.8382 8.0528 -4.50926 11.7218 1.748
lowerback 12.7098 2.6071 1.81
upperback 1.5132 3.70314 -0.216069
thorax -5.39486 1.78406 -1.87618
lowerneck -17.5623 3.02647 -8.69753
upperneck 41.3453 6.81451 4.32533
head 17.845 2.12579 4.94568
rclavicle -1.89094e-014 -7.95139e-016
rhumerus -33.4566 -13.5532 -76.5646
rradius 34.1952
rwrist 4.60512
rhand -16.0078 7.30814
rfingers 7.12502
rthumb 10.1926 -22.4249
lclavicle -1.89094e-014 -7.95139e-016
lhumerus -36.5596 17.7923 75.568
lradius 34.4079
lwrist -7.19026
lhand -21.3693 26.6519
lfingers 7.12502
lthumb 5.0178 56.5724
rfemur 0.197847 -0.416473 15.9896
rtibia 27.9052
rfoot -16.5974 -6.73975
rtoes -8.26656
lfemur -13.8503 -5.80469 -8.02312
ltibia 30.0855
lfoot -3.99338 2.88841
ltoes 6.0022
362
root -3.63365 17.8294 8.06808 -4.50193 11.8656 1.61998
lowerback 12.8109 2.51799 1.94511
upperback 1.42035 3.60813 -0.193931
thorax -5.54593 1.73098 -1.92165
lowerneck -17.5785 3.1051 -8.76163
upperneck 41.3655 6.96147 4.33889
head 17.8414 2.17643 4.9906
rclavicle -6.24681e-014 1.98785e-015
rhumerus -33.5498 -13.2342 -76.4948
rradius 34.2551
rwrist 4.5897
rhand -15.834 7.20438
rfingers 7.12502
rthumb 10.3603 -22.5204
lclavicle -6.24681e-014 1.98785e-015
lhumerus -36.8569 18.2803 75.2095
lradius 33.8853
lwrist -7.09319
lhand -21.6863 27.676
lfingers 7.12502
lthumb 4.71169 57.6036
rfemur 0.421983 -0.270074 15.9609
rtibia 27.6668
rfoot -16.4645 -6.99028
rtoes -8.43002
lfemur -13.697 -5.93726 -7.30412
ltibia 29.4527
lfoot -2.94907 2.63026
ltoes 1.71147
363
root -3.56609 17.8312 8.08911 -4.51246 11.9048 1.49097
lowerback 12.7969 2.49365 2.05036
upperback 1.3765 3.59217 -0.172282
thorax -5.58015 1.71998 -1.95599
lowerneck -17.5437 3.18001 -8.64657
upperneck 41.3719 7.06763 4.25739
head 17.8355 2.22626 4.95024
rclavicle -3.85642e-014 -7.95139e-016
rhumerus -33.6394 -13.1879 -76.3509
rradius 34.2926
rwrist 4.75194
rhand -15.73 7.36536
rfingers 7.12502
rthumb 10.4606 -22.3544
lclavicle -3.85642e-014 -7.95139e-016
lhumerus -37.0909 18.4448 75.0252
lradius 33.5123
lwrist -6.54294
lhand -21.8649 27.6365
lfingers 7.12502
lthumb 4.53922 57.5679
rfemur 0.620309 -0.0660858 15.9374
rtibia 27.5171
rfoot -16.4291 -7.26244
rtoes -9.296
lfemur -13.3149 -6.3031 -6.51221
ltibia 28.7544
lfoot -2.05404 2.58519
ltoes 2.57799
364
root -3.49876 17.8334 8.1165 -4.5061 11.9717 1.5495
lowerback 12.6838 2.53057 1.92198
upperback 1.42717 3.61984 -0.180883
thorax -5.47005 1.73899 -1.88978
lowerneck -17.6107 3.18187 -8.58572
upperneck 41.3248 7.08025 4.19291
head 17.8324 2.23306 4.91224
rclavicle 1.57288e-014 1.59028e-015
rhumerus -33.524 -13.241 -76.2037
rradius 34.173
rwrist 4.82014
rhand -15.8248 7.5004
rfingers 7.12502
rthumb 10.3691 -22.2239
lclavicle 1.57288e-014 1.59028e-015
lhumerus -37.1553 19.0398 74.6905
lradius 32.8436
lwrist -6.71928
lhand -21.6906 26.4602
lfingers 7.12502
lthumb 4.70753 56.3879
rfemur 0.884271 0.209389 15.7211
rtibia 27.3545
rfoot -16.4939 -7.53098
rtoes -9.35279
lfemur -12.8819 -6.69904 -5.96587
ltibia 28.0941
lfoot -1.17 2.63796
ltoes 3.35804
365
root -3.42817 17.8332 8.13843 -4.46279 12.1355 1.66742
lowerback 12.6182 2.52363 1.77043
upperback 1.44934 3.58692 -0.204289
thorax -5.4195 1.72705 -1.81963
lowerneck -17.6965 3.17529 -8.59076
upperneck 41.3202 7.11133 4.12924
head 17.8548 2.23405 4.89359
rclavicle 1.1532e-013 3.97569e-016
rhumerus -33.4696 -13.3158 -76.0088
rradius 34.1352
rwrist 4.96079
rhand -15.7033 7.53067
rfingers 7.12502
rthumb 10.4864 -22.1878
lclavicle 1.1532e-013 3.97569e-016
lhumerus -37.2886 19.886 74.1532
lradius 32.0286
lwrist -7.44407
lhand -21.3132 24.4152
lfingers 7.12502
lthumb 5.07196 54.3345
rfemur 1.16541 0.300585 15.3878
rtibia 27.1146
rfoot -16.5132 -7.65359
rtoes -9.09922
lfemur -12.551 -7.04623 -5.53347
ltibia 27.4946
lfoot -0.298893 2.68102
ltoes 3.73333
366
root -3.34957 17.8311 8.15477 -4.39053 12.2882 1.72202
lowerback 12.5266 2.48099 1.7861
upperback 1.45666 3.52891 -0.238714
thorax -5.36015 1.69911 -1.84967
lowerneck -17.7235 3.18264 -8.55785
upperneck 41.3081 7.14807 4.04895
head 17.8595 2.24226 4.85793
rclavicle -1.33931e-014 3.57812e-015
rhumerus -33.5355 -13.3579 -75.8435
rradius 34.244
rwrist 5.03544
rhand -15.765 7.73739
rfingers 7.12502
rthumb 10.4268 -21.9841
lclavicle -1.33931e-014 3.57812e-015
lhumerus -37.3988 20.262 73.856
lradius 31.4994
lwrist -7.59561
lhand -21.032 23.5314
lfingers 7.12502
lthumb 5.34345 53.444
rfemur 1.40691 0.290354 15.0708
rtibia 26.8273
rfoot -16.4156 -7.72914
rtoes -9.4575
lfemur -12.2953 -7.45317 -5.07054
ltibia 26.9409
lfoot 0.524988 2.81185
ltoes 3.72933
